<svg xmlns="http://www.w3.org/2000/svg" xmlns:xlink="http://www.w3.org/1999/xlink" width="500" zoomAndPan="magnify" viewBox="0 0 375 374.999991" height="500" preserveAspectRatio="xMidYMid meet" version="1.2"><defs><clipPath id="5c99dc6d49"><path d="M 18.332031 153.019531 L 84.332031 153.019531 L 84.332031 207.769531 L 18.332031 207.769531 Z M 18.332031 153.019531 "/></clipPath></defs><g id="942f1c84bc"><g clip-rule="nonzero" clip-path="url(#5c99dc6d49)"><path style=" stroke:none;fill-rule:nonzero;fill:#ff743e;fill-opacity:1;" d="M 75.449219 177.390625 C 73.183594 175.191406 70.683594 173.273438 68.027344 171.566406 C 65.9375 170.378906 63.832031 169.15625 61.546875 168.375 C 59.238281 167.664062 56.902344 166.871094 54.476562 166.71875 C 49.605469 166.402344 44.667969 167.175781 40.164062 169.0625 C 34.964844 171.386719 30.5 175.085938 26.535156 179.113281 C 24.746094 181.019531 22.855469 182.820312 21.429688 185.027344 C 20.578125 186.3125 18.84375 188.023438 20.148438 189.550781 C 22.527344 193.132812 25.597656 196.25 28.949219 198.929688 C 31.175781 200.644531 33.625 201.980469 36.125 203.242188 C 41.0625 205.644531 46.476562 207.371094 51.980469 207.738281 C 52.363281 207.761719 52.746094 207.769531 53.128906 207.769531 C 58.355469 207.769531 63.390625 205.65625 67.425781 202.375 C 70.546875 199.945312 73.363281 197.121094 75.6875 193.917969 C 77.152344 191.683594 78.890625 189.613281 80.007812 187.171875 C 80.554688 185.777344 81.703125 184.085938 80.714844 182.648438 C 79.046875 180.808594 77.195312 179.152344 75.449219 177.390625 Z M 73.582031 191.269531 C 71.402344 194.425781 68.722656 197.210938 65.71875 199.589844 C 62.527344 202.183594 58.730469 204.128906 54.578125 204.457031 C 50.320312 204.777344 46.148438 203.636719 42.160156 202.269531 C 38.207031 200.867188 34.417969 198.910156 31.035156 196.429688 C 28.082031 194.09375 25.332031 191.324219 23.164062 188.21875 C 27.59375 181.886719 33.289062 176.238281 40.179688 172.621094 C 43.855469 170.832031 47.976562 169.886719 52.082031 169.886719 C 53.378906 169.886719 54.667969 169.980469 55.945312 170.175781 C 57.921875 170.664062 59.910156 171.160156 61.792969 171.945312 C 64.308594 173.101562 66.71875 174.488281 68.941406 176.140625 C 70.964844 177.542969 72.738281 179.269531 74.460938 181.019531 C 75.609375 182.027344 76.691406 183.101562 77.714844 184.234375 C 76.84375 186.859375 75.082031 188.996094 73.582031 191.269531 Z M 65.289062 186.855469 C 65.332031 189.535156 64.59375 191.722656 63.296875 194.039062 C 62.523438 195.601562 61.550781 197.089844 60.132812 198.136719 C 58.8125 199.191406 57.21875 199.859375 55.597656 200.292969 C 54.597656 200.554688 53.566406 200.644531 52.535156 200.644531 C 51.871094 200.644531 51.207031 200.609375 50.550781 200.550781 C 47.164062 200.238281 43.800781 198.875 41.339844 196.5 C 40.085938 195.363281 39.042969 194.023438 38.359375 192.472656 C 37.605469 190.972656 36.953125 189.34375 37.078125 187.632812 C 37.292969 183.984375 38.964844 179.757812 41.789062 177.351562 C 44.398438 175.210938 47.804688 173.765625 51.222656 174.023438 C 52.121094 174.113281 54.011719 174.484375 53.46875 175.757812 C 53.066406 176.398438 52.183594 176.261719 51.535156 176.371094 C 50.433594 176.484375 49.277344 176.683594 48.242188 177.0625 C 45.597656 177.984375 43.019531 179.664062 41.800781 182.257812 C 40.855469 184.15625 40.214844 186.199219 40.257812 188.285156 C 40.367188 189.425781 40.964844 190.445312 41.441406 191.46875 C 42.042969 192.734375 43.054688 193.714844 44.085938 194.636719 C 44.714844 195.179688 45.429688 195.597656 46.160156 195.984375 C 47.671875 196.722656 49.308594 197.222656 50.996094 197.335938 C 52.140625 197.402344 53.296875 197.464844 54.429688 197.230469 C 56.945312 196.675781 59.046875 195.382812 60.164062 192.996094 C 61.5 190.617188 62.148438 189.023438 62.03125 186.242188 C 61.832031 184.425781 60.992188 182.707031 59.792969 181.339844 C 59.007812 180.511719 58.253906 179.632812 57.316406 178.972656 C 56.945312 178.726562 56.570312 178.484375 56.1875 178.253906 C 55.425781 177.824219 55.148438 176.777344 55.605469 176.03125 C 56.046875 175.277344 57.074219 174.988281 57.832031 175.449219 C 58.109375 175.617188 58.378906 175.792969 58.652344 175.96875 C 59.644531 176.5625 60.492188 177.351562 61.285156 178.1875 C 63.621094 180.4375 65.339844 183.550781 65.289062 186.855469 Z M 54.402344 183.9375 C 55.027344 184.628906 55.492188 185.453125 55.617188 186.382812 C 55.960938 188.910156 54.144531 191.386719 51.605469 191.386719 C 51.382812 191.386719 51.152344 191.367188 50.917969 191.328125 C 46.644531 190.832031 45.640625 185.367188 49.285156 183.230469 C 51.011719 182.226562 53.097656 182.316406 54.402344 183.9375 Z M 21.539062 173.5625 C 20.691406 172.75 19.710938 172.046875 18.949219 171.15625 C 18.351562 170.226562 18.972656 168.847656 20.082031 168.738281 C 20.957031 168.582031 21.550781 169.25 22.09375 169.816406 C 22.992188 170.671875 23.90625 171.503906 24.804688 172.359375 C 25.394531 172.992188 26.253906 173.542969 26.40625 174.449219 C 26.574219 175.519531 25.421875 176.445312 24.417969 175.996094 C 24.417969 175.996094 24.417969 176 24.417969 176 C 23.339844 175.359375 22.511719 174.351562 21.539062 173.5625 Z M 30.898438 163.96875 C 30.464844 162.769531 29.910156 161.734375 29.738281 160.519531 C 29.691406 159.058594 31.699219 158.382812 32.566406 159.558594 C 33.34375 161.097656 33.734375 162.851562 34.449219 164.4375 C 35.039062 165.972656 36.285156 169.492188 33.386719 169.136719 C 32.421875 168.910156 32.304688 167.871094 32.082031 167.070312 C 31.769531 166.003906 31.324219 164.988281 30.898438 163.96875 Z M 43.058594 156.015625 C 42.476562 153.765625 45.757812 153.019531 46.199219 155.300781 C 46.398438 156.980469 47.058594 158.570312 47.203125 160.261719 C 47.265625 160.992188 47.355469 161.757812 47.148438 162.472656 C 46.894531 163.445312 45.628906 163.882812 44.839844 163.242188 C 44.1875 162.78125 44.292969 161.949219 44.140625 161.261719 C 43.859375 160.078125 43.5625 158.890625 43.449219 157.675781 C 43.289062 157.128906 43.160156 156.574219 43.058594 156.015625 Z M 56.210938 160.804688 C 56.285156 159.914062 56.445312 159.03125 56.582031 158.144531 C 56.71875 157.3125 56.867188 156.480469 57.007812 155.644531 C 57.0625 155.007812 57.300781 154.359375 57.886719 154.035156 C 58.898438 153.398438 60.261719 154.253906 60.234375 155.417969 C 60.015625 156.769531 59.660156 158.105469 59.429688 159.460938 C 59.292969 160.117188 59.144531 160.953125 59.035156 161.558594 C 58.984375 161.894531 58.863281 162.21875 58.605469 162.453125 C 58.171875 162.902344 57.460938 162.980469 56.921875 162.671875 C 56.246094 162.316406 56.121094 161.492188 56.210938 160.804688 Z M 67.949219 165.34375 C 68.382812 164.308594 68.820312 163.277344 69.34375 162.28125 C 70.253906 160.894531 70.671875 157.367188 72.960938 158.144531 C 75.074219 159.222656 72.953125 161.878906 72.464844 163.414062 C 72.058594 164.285156 71.585938 165.125 71.121094 165.964844 C 70.699219 166.984375 69.6875 168.023438 68.539062 167.34375 C 67.847656 166.972656 67.585938 166 67.949219 165.34375 Z M 83.324219 168.988281 C 82.515625 169.476562 79.773438 171.703125 79.027344 172.277344 C 78.199219 172.828125 77.273438 173.773438 76.203125 173.566406 C 75.582031 173.414062 75.125 172.792969 75.195312 172.136719 C 75.226562 171.828125 75.367188 171.554688 75.566406 171.351562 C 75.566406 171.351562 75.5625 171.351562 75.558594 171.347656 C 75.917969 171 76.34375 170.730469 76.726562 170.402344 C 77.328125 169.917969 77.898438 169.386719 78.507812 168.910156 C 78.855469 168.640625 81.210938 166.738281 81.558594 166.46875 C 82.21875 165.949219 83.199219 166.046875 83.730469 166.707031 C 84.308594 167.402344 84.105469 168.535156 83.324219 168.988281 Z M 83.324219 168.988281 "/></g><g style="fill:#000000;fill-opacity:1;"><g transform="translate(94.046542, 201.749987)"><path style="stroke:none" d="M 38.9375 0 L 31.5 0 L 28.453125 -7.4375 L 10.75 -7.4375 L 7.6875 0 L 0.25 0 L 16.265625 -38.484375 L 22.9375 -38.484375 Z M 19.34375 -28.484375 L 13.15625 -13.328125 L 26.046875 -13.328125 L 19.828125 -28.484375 L 19.65625 -29.40625 L 19.578125 -29.40625 Z M 19.34375 -28.484375 "/></g></g><g style="fill:#000000;fill-opacity:1;"><g transform="translate(130.777692, 201.749987)"><path style="stroke:none" d="M 16 0.875 C 13.945312 0.875 12.054688 0.476562 10.328125 -0.3125 C 8.609375 -1.101562 7.125 -2.203125 5.875 -3.609375 C 4.632812 -5.023438 3.671875 -6.664062 2.984375 -8.53125 C 2.296875 -10.40625 1.953125 -12.40625 1.953125 -14.53125 C 1.953125 -16.664062 2.285156 -18.660156 2.953125 -20.515625 C 3.617188 -22.367188 4.578125 -24.003906 5.828125 -25.421875 C 7.085938 -26.835938 8.582031 -27.945312 10.3125 -28.75 C 12.050781 -29.550781 13.976562 -29.953125 16.09375 -29.953125 C 17.675781 -29.953125 19.113281 -29.671875 20.40625 -29.109375 C 21.695312 -28.554688 22.804688 -27.847656 23.734375 -26.984375 C 24.671875 -26.128906 25.394531 -25.242188 25.90625 -24.328125 L 25.765625 -27.34375 L 25.765625 -39.828125 L 32.578125 -39.828125 L 32.578125 0 L 26.078125 0 L 26.078125 -4.890625 C 25.515625 -3.867188 24.75 -2.921875 23.78125 -2.046875 C 22.820312 -1.171875 21.691406 -0.46875 20.390625 0.0625 C 19.085938 0.601562 17.625 0.875 16 0.875 Z M 17.25 -5.4375 C 18.4375 -5.4375 19.546875 -5.664062 20.578125 -6.125 C 21.617188 -6.582031 22.53125 -7.226562 23.3125 -8.0625 C 24.101562 -8.894531 24.71875 -9.859375 25.15625 -10.953125 C 25.601562 -12.054688 25.828125 -13.25 25.828125 -14.53125 C 25.828125 -15.8125 25.609375 -17 25.171875 -18.09375 C 24.734375 -19.1875 24.125 -20.148438 23.34375 -20.984375 C 22.5625 -21.816406 21.648438 -22.460938 20.609375 -22.921875 C 19.578125 -23.378906 18.457031 -23.609375 17.25 -23.609375 C 15.644531 -23.609375 14.191406 -23.21875 12.890625 -22.4375 C 11.585938 -21.65625 10.5625 -20.585938 9.8125 -19.234375 C 9.0625 -17.878906 8.6875 -16.3125 8.6875 -14.53125 C 8.6875 -12.820312 9.050781 -11.273438 9.78125 -9.890625 C 10.519531 -8.515625 11.535156 -7.425781 12.828125 -6.625 C 14.117188 -5.832031 15.59375 -5.4375 17.25 -5.4375 Z M 17.25 -5.4375 "/></g></g><g style="fill:#000000;fill-opacity:1;"><g transform="translate(164.850676, 201.749987)"><path style="stroke:none" d="M 39.65625 -29.953125 C 43.3125 -29.953125 46.039062 -28.710938 47.84375 -26.234375 C 49.65625 -23.753906 50.5625 -20.234375 50.5625 -15.671875 L 50.5625 0 L 43.8125 0 L 43.8125 -15.53125 C 43.8125 -18.394531 43.257812 -20.460938 42.15625 -21.734375 C 41.050781 -23.003906 39.554688 -23.640625 37.671875 -23.640625 C 36.460938 -23.640625 35.320312 -23.269531 34.25 -22.53125 C 33.175781 -21.800781 32.304688 -20.773438 31.640625 -19.453125 C 30.984375 -18.140625 30.65625 -16.601562 30.65625 -14.84375 L 30.65625 0 L 23.890625 0 L 23.890625 -15.53125 C 23.890625 -18.394531 23.335938 -20.460938 22.234375 -21.734375 C 21.140625 -23.003906 19.660156 -23.640625 17.796875 -23.640625 C 16.566406 -23.640625 15.414062 -23.269531 14.34375 -22.53125 C 13.28125 -21.800781 12.421875 -20.773438 11.765625 -19.453125 C 11.109375 -18.140625 10.78125 -16.601562 10.78125 -14.84375 L 10.78125 0 L 4.015625 0 L 4.015625 -29.078125 L 10.40625 -29.078125 L 10.5 -24.546875 C 11 -25.585938 11.703125 -26.507812 12.609375 -27.3125 C 13.515625 -28.125 14.578125 -28.765625 15.796875 -29.234375 C 17.015625 -29.710938 18.335938 -29.953125 19.765625 -29.953125 C 22.203125 -29.953125 24.222656 -29.390625 25.828125 -28.265625 C 27.441406 -27.140625 28.65625 -25.515625 29.46875 -23.390625 C 30.71875 -25.628906 32.207031 -27.28125 33.9375 -28.34375 C 35.675781 -29.414062 37.582031 -29.953125 39.65625 -29.953125 Z M 39.65625 -29.953125 "/></g></g><g style="fill:#000000;fill-opacity:1;"><g transform="translate(216.710742, 201.749987)"><path style="stroke:none" d="M 7.375 -33.59375 C 6.0625 -33.59375 5.03125 -33.972656 4.28125 -34.734375 C 3.539062 -35.503906 3.171875 -36.4375 3.171875 -37.53125 C 3.171875 -38.582031 3.539062 -39.492188 4.28125 -40.265625 C 5.03125 -41.046875 6.070312 -41.4375 7.40625 -41.4375 C 8.78125 -41.4375 9.835938 -41.046875 10.578125 -40.265625 C 11.328125 -39.492188 11.703125 -38.582031 11.703125 -37.53125 C 11.703125 -36.4375 11.328125 -35.503906 10.578125 -34.734375 C 9.835938 -33.972656 8.769531 -33.59375 7.375 -33.59375 Z M 10.859375 0 L 4.015625 0 L 4.015625 -29.078125 L 10.859375 -29.078125 Z M 10.859375 0 "/></g></g><g style="fill:#000000;fill-opacity:1;"><g transform="translate(229.065954, 201.749987)"><path style="stroke:none" d="M 10.859375 0 L 4.015625 0 L 4.015625 -29.078125 L 10.515625 -29.078125 L 10.515625 -24.546875 C 11.085938 -25.597656 11.863281 -26.53125 12.84375 -27.34375 C 13.820312 -28.15625 14.960938 -28.789062 16.265625 -29.25 C 17.566406 -29.71875 18.960938 -29.953125 20.453125 -29.953125 C 24.347656 -29.953125 27.265625 -28.710938 29.203125 -26.234375 C 31.148438 -23.753906 32.125 -20.234375 32.125 -15.671875 L 32.125 0 L 25.28125 0 L 25.28125 -15.53125 C 25.28125 -18.414062 24.675781 -20.488281 23.46875 -21.75 C 22.269531 -23.007812 20.628906 -23.640625 18.546875 -23.640625 C 17.210938 -23.640625 15.957031 -23.300781 14.78125 -22.625 C 13.613281 -21.945312 12.664062 -20.957031 11.9375 -19.65625 C 11.21875 -18.351562 10.859375 -16.75 10.859375 -14.84375 Z M 10.859375 0 "/></g></g><g style="fill:#ff743e;fill-opacity:1;"><g transform="translate(262.491844, 201.749987)"><path style="stroke:none" d="M 7.375 -33.59375 C 6.0625 -33.59375 5.03125 -33.972656 4.28125 -34.734375 C 3.539062 -35.503906 3.171875 -36.4375 3.171875 -37.53125 C 3.171875 -38.582031 3.539062 -39.492188 4.28125 -40.265625 C 5.03125 -41.046875 6.070312 -41.4375 7.40625 -41.4375 C 8.78125 -41.4375 9.835938 -41.046875 10.578125 -40.265625 C 11.328125 -39.492188 11.703125 -38.582031 11.703125 -37.53125 C 11.703125 -36.4375 11.328125 -35.503906 10.578125 -34.734375 C 9.835938 -33.972656 8.769531 -33.59375 7.375 -33.59375 Z M 10.859375 0 L 4.015625 0 L 4.015625 -29.078125 L 10.859375 -29.078125 Z M 10.859375 0 "/></g></g><g style="fill:#000000;fill-opacity:1;"><g transform="translate(274.855128, 201.749987)"><path style="stroke:none" d="M 26.84375 0 L 1.78125 0 L 1.78125 -4.25 L 16.859375 -23.296875 L 2.546875 -23.296875 L 2.546875 -29.078125 L 26.15625 -29.078125 L 26.15625 -24.78125 L 11.203125 -5.765625 L 26.84375 -5.765625 Z M 26.84375 0 "/></g></g><g style="fill:#000000;fill-opacity:1;"><g transform="translate(300.529443, 201.749987)"><path style="stroke:none" d="M 31.671875 -15.046875 C 31.671875 -14.691406 31.660156 -14.351562 31.640625 -14.03125 C 31.628906 -13.707031 31.59375 -13.273438 31.53125 -12.734375 L 8.828125 -12.734375 C 9.066406 -11.140625 9.566406 -9.785156 10.328125 -8.671875 C 11.097656 -7.566406 12.046875 -6.71875 13.171875 -6.125 C 14.304688 -5.53125 15.546875 -5.234375 16.890625 -5.234375 C 18.617188 -5.234375 20.019531 -5.578125 21.09375 -6.265625 C 22.164062 -6.953125 22.953125 -7.910156 23.453125 -9.140625 L 30.90625 -9.140625 C 30.550781 -7.835938 29.960938 -6.582031 29.140625 -5.375 C 28.328125 -4.164062 27.320312 -3.09375 26.125 -2.15625 C 24.9375 -1.226562 23.570312 -0.492188 22.03125 0.046875 C 20.5 0.597656 18.832031 0.875 17.03125 0.875 C 14.84375 0.875 12.828125 0.472656 10.984375 -0.328125 C 9.148438 -1.128906 7.554688 -2.234375 6.203125 -3.640625 C 4.859375 -5.054688 3.8125 -6.695312 3.0625 -8.5625 C 2.320312 -10.4375 1.953125 -12.425781 1.953125 -14.53125 C 1.953125 -16.664062 2.320312 -18.660156 3.0625 -20.515625 C 3.8125 -22.367188 4.859375 -24.003906 6.203125 -25.421875 C 7.554688 -26.835938 9.148438 -27.945312 10.984375 -28.75 C 12.828125 -29.550781 14.84375 -29.953125 17.03125 -29.953125 C 19.21875 -29.953125 21.207031 -29.554688 23 -28.765625 C 24.800781 -27.972656 26.347656 -26.882812 27.640625 -25.5 C 28.929688 -24.113281 29.925781 -22.523438 30.625 -20.734375 C 31.320312 -18.941406 31.671875 -17.046875 31.671875 -15.046875 Z M 9.109375 -18.015625 L 24.6875 -18.015625 C 24.59375 -19.109375 24.1875 -20.101562 23.46875 -21 C 22.757812 -21.894531 21.835938 -22.613281 20.703125 -23.15625 C 19.566406 -23.707031 18.332031 -23.984375 17 -23.984375 C 15.84375 -23.984375 14.738281 -23.769531 13.6875 -23.34375 C 12.632812 -22.914062 11.707031 -22.265625 10.90625 -21.390625 C 10.101562 -20.515625 9.503906 -19.390625 9.109375 -18.015625 Z M 9.109375 -18.015625 "/></g></g><g style="fill:#000000;fill-opacity:1;"><g transform="translate(331.265582, 201.749987)"><path style="stroke:none" d="M 10.859375 0 L 4.015625 0 L 4.015625 -29.078125 L 10.578125 -29.078125 L 10.578125 -23.8125 C 11.253906 -25.414062 12.253906 -26.691406 13.578125 -27.640625 C 14.898438 -28.597656 16.503906 -29.078125 18.390625 -29.078125 L 21.5 -29.078125 L 21.5 -23.1875 L 18.75 -23.1875 C 17.1875 -23.1875 15.8125 -22.804688 14.625 -22.046875 C 13.4375 -21.296875 12.507812 -20.203125 11.84375 -18.765625 C 11.1875 -17.335938 10.859375 -15.585938 10.859375 -13.515625 Z M 10.859375 0 "/></g></g></g></svg>